<svg width="2em" height="2em" viewBox="0 0 24 24" fill="none" xmlns="http://www.w3.org/2000/svg">
<path d="M8.08578 6.03381C9.28578 3.23381 11.7524 2.86713 12.5858 3.0338C16.2773 3.7721 16.4191 7.36714 15.5858 9.03381L10.0858 19.0338C9.58578 20.0338 7.88479 21.7534 6.0858 21.0338C4.28682 20.3142 3.77328 18.5338 4.08578 17.5338C4.91912 14.8671 6.88578 8.83381 8.08578 6.03381Z" fill="currentColor" fill-opacity="0.9"/>
<path d="M16.0011 6.03347C14.8014 3.26499 12.3354 2.90244 11.5022 3.06723C7.81167 3.79722 7.66989 7.35179 8.50301 8.99968L14.0016 18.8871C14.5015 19.8758 16.202 21.5761 18.0005 20.8646C19.7991 20.1531 20.3125 18.3927 20 17.404C19.1669 14.7673 17.2008 8.80194 16.0011 6.03347Z" fill="currentColor" fill-opacity="0.9"/>
</svg>
